<svg xmlns="http://www.w3.org/2000/svg" width="64.999" height="101.851" viewBox="0 0 17.198 26.949"><path d="M9.28.32c-.201-.002-.402.002-.602.012a14.3 14.3 0 00-1.184.11c-.64.087-1.305.21-1.952.455a7.771 7.771 0 00-1.785.972 5.04 5.04 0 00-1.04.978c-.233.303-.72.774-.774 1.469-.081.138-.291.494-.451.824-.191.393-.377.884-.523 1.23a.238.238 0 00-.004.006C.8 6.763.664 7.149.603 7.444A5.43 5.43 0 00.469 8.49c-.01.37-.026.846.03 1.376.053.465.149.886.188 1.308a.935.935 0 00-.35.396c-.11.244-.082.476-.057.612.016.088.035.203.06.32.002.006.01.123.022.26a.238.238 0 000 .009c.016.211.075.427.08.453l-.005-.034a.565.565 0 00.009.054.238.238 0 000 .002l.089.392c0 .238.005.579.03 1.03.048.83.217 2.663.276 3.492.059.819.02 1.156.11 1.648.047.252.123.5.188.686.033.094.062.172.084.228.02.054.044.107.036.088 0 0 .002.003 0 .002a.238.238 0 00.006.015v.001c.004.01.11.28.272.636.166.365.382.81.6 1.15.445.693 1.48 1.804 1.482 1.806.005.005.235.263.532.563.298.3.652.647 1.008.866.623.384 1.34.568 1.816.675.276.062.548.086.763.097.108.005.206.008.279.008h.12c.086 0 .146-.011.22-.021a8.4 8.4 0 00.313-.052c.24-.046.532-.11.8-.22.293-.121.607-.328.878-.51a17.167 17.167 0 00.494-.342.238.238 0 00.005-.005 32.163 32.163 0 00.67-.499c.374-.287.82-.643 1.13-.94.566-.54.825-.87 1.57-1.802a.238.238 0 00.01-.01.238.238 0 000-.001c.018-.022.03-.046.043-.07a.238.238 0 00.029-.045c.408-.881.412-.93.56-1.371.162-.486.288-1 .392-1.473.112-.507.244-1.381.245-1.382v-.01a.238.238 0 00.003-.02l.07-.418c.177-.2.282-.416.337-.571.093-.263.112-.523.122-.705a1.761 1.761 0 00-.021-.38l.005-.02.028-.098c.022-.066.043-.12.043-.12a.238.238 0 00.004-.012.2.2 0 00.006-.016l.002-.004a.31.31 0 00.006-.019.238.238 0 00.002-.004l.217-.81a.238.238 0 00.002-.007.238.238 0 00.002-.005v-.003l.06-.242c.035-.135.08-.3.113-.41.057-.183.217-.528.305-.87.07-.274.132-.549.132-.842 0-.076.009-.198-.003-.343a.93.93 0 00-.222-.568.96.96 0 00-.448-.269 54.789 54.789 0 00.416-2.474c.04-.3.076-.522.064-.733-.023-.433-.081-.845-.18-1.145-.03-.092-.134-.467-.256-.81.058-.142.083-.303-.003-.458a23.46 23.46 0 00-.73-1.233c-.371-.569-.761-1.155-1.23-1.702-.346-.405-.73-.88-1.266-1.243-.45-.304-.937-.463-1.367-.599A8.342 8.342 0 009.885.35c-.02-.002-.028-.001-.023-.001A8.726 8.726 0 009.278.32zm7.025 5.18l.03.116a.238.238 0 00-.03-.116z" fill="#fafafa" fill-rule="evenodd" stroke="#fafafa" stroke-width=".359"/><path d="M9.274.829a9.728 9.728 0 00-.572.01c-.382.018-.763.057-1.14.107-.622.084-1.25.202-1.84.426a7.271 7.271 0 00-1.667.909c-.346.25-.672.54-.936.878-.283.364-.675.76-.685 1.254l.002.016.012.02c-.03.052-.332.568-.5.913-.175.36-.361.85-.515 1.213a6.121 6.121 0 00-.333.972 4.894 4.894 0 00-.124.954c-.008.374-.023.823.03 1.31.054.488.209.998.223 1.578.002.04 0 .091-.002.14a.212.212 0 00-.094-.014c-.046.006-.083.024-.12.04a.431.431 0 00-.212.221.517.517 0 00-.02.314c.017.096.036.206.057.308.02.093.02.203.03.332.012.14.076.404.076.404h0l.096.428v-.002s.003.008.003.014c0 .23.006.597.032 1.064.046.803.214 2.641.275 3.485.06.843.026 1.172.103 1.593.078.423.278.902.278.902s.458 1.13.838 1.72c.38.595 1.433 1.744 1.433 1.744s.224.251.513.543c.29.292.643.624.914.791.534.33 1.204.51 1.66.612.233.052.48.075.679.085.197.01.348.008.373.008a6.12 6.12 0 00.439-.064 3.82 3.82 0 00.7-.192c.212-.087.525-.284.79-.46.264-.178.478-.333.478-.333s1.196-.865 1.752-1.398c.552-.529.778-.82 1.535-1.764a.053.053 0 00.007-.011c.406-.878.389-.87.539-1.32.153-.458.276-.957.379-1.42.103-.468.24-1.362.24-1.363h0l.093-.568.036-.033c.166-.135.243-.328.303-.497.062-.178.085-.4.094-.563.01-.172-.038-.284-.023-.402.014-.117.11-.37.11-.37a.053.053 0 00.002-.006l.218-.81a.053.053 0 000-.002s.104-.43.18-.682c.078-.25.23-.58.299-.848.067-.26.116-.497.116-.715 0-.103.007-.208 0-.306a.43.43 0 00-.093-.266.482.482 0 00-.395-.172.663.663 0 00-.357.127c.066-.187.129-.376.159-.52a59.768 59.768 0 00.435-2.586c.04-.297.067-.525.06-.637-.02-.4-.084-.8-.155-1.015-.064-.197-.154-.647-.317-1.008-.03-.065-.05-.113-.072-.168l.092.067a.053.053 0 00.077-.069s-.453-.81-.71-1.202c-.37-.567-.75-1.133-1.192-1.65-.351-.411-.708-.843-1.164-1.152-.376-.254-.812-.401-1.236-.535A7.845 7.845 0 009.847.855a8.202 8.202 0 00-.572-.026z" fill="#212121" fill-rule="evenodd" stroke="#212121" stroke-width=".359"/><path d="M1.25 13.345c.05-.87.23-4.675.505-5.887.276-1.21.206-1.169.436-1.655.23-.487.35-.919.89-1.23.539-.31 2.616-.286 5.15-.226 2.497.06 4.909.464 5.31.684.813.44 1.098 1.7 1.36 2.606.26.906.213 1.28.24 2.739.028 1.458-.01 1.487-.006 2.165.005.677.026 1.294.024 1.897-.002.604-.012.954-.096 1.713-.085.758-.256 1.985-.47 2.826-.211.841-.412 1.52-.758 2.213-.346.692-.701 1.263-1.292 1.906-.591.643-2.286 1.857-2.286 1.857s-.73.582-1.292.719-1.428.097-2.06-.032c-.63-.13-1.128-.34-1.776-.784-.648-.444-1.466-1.372-1.922-1.938-.456-.566-.937-1.486-.937-1.486s-.506-.829-.662-1.486c-.156-.657-.113-2.423-.113-2.423s-.155-1.588-.202-2.285c-.047-.697-.093-1.023-.042-1.893z" fill="#fafafa" fill-rule="evenodd" stroke="#fafafa" stroke-width=".024"/><path d="M15.107 12.306s.285-.417.434-.537a.61.61 0 01.4-.16.42.42 0 01.354.154c.107.12.08.327.08.537 0 .21-.048.443-.115.702-.066.26-.218.59-.296.846-.08.255-.183.685-.183.685l-.217.81s-.098.25-.114.383c-.017.134.03.246.022.406a2.15 2.15 0 01-.091.548c-.06.168-.133.35-.286.474-.152.124-.285.371-.285.371zm-13.71-.403c-.015-.04-.06-.254-.144-.307-.085-.053-.144-.025-.218.008a.381.381 0 00-.186.194.463.463 0 00-.016.282c.018.097.036.207.057.307.02.1.022.212.032.34.01.127.073.395.073.395l.097.428s.076.402.163.51c.087.107.265.088.265.088z" fill="#fafafa" fill-rule="evenodd" stroke="#fafafa" stroke-width=".024"/><path d="M15.43 12.467s.012-.205.063-.286a.377.377 0 01.223-.171c.099-.026.25-.016.33.046.082.062.09.137.11.257.02.119-.012.31-.03.445-.016.134-.05.239-.088.36-.038.12-.342.933-.342.933s.07-.346.094-.428c.032-.113.157-.489.166-.53.034-.15.066-.319.08-.447.014-.128.025-.26.003-.35-.021-.09-.027-.114-.087-.157s-.134-.024-.19-.023c-.056 0-.067.003-.11.01-.04.005-.095.058-.124.095a1.68 1.68 0 00-.098.246z" fill="#212121" fill-rule="evenodd" stroke="#212121" stroke-width=".012"/><path d="M15.69 11.152c-.062.295-.265.81-.355 1.062-.09.253-.17.457-.17.457.002.147.045.697.045.697l-.171.434-.035-3.472s.093-1.684-.114-2.399c-.207-.714-1.016-1.793-1.016-1.793l-.07-2.375s1.088.909 1.406 1.279c.318.37.347.545.506.897.16.352.248.797.315 1.003.068.205.132.606.154 1.001.02.396-.434 2.914-.496 3.21z" fill="#666" fill-rule="evenodd" stroke="#666" stroke-width=".024"/><path d="M2.795 5.03s3.249.007 4.34.423c1.09.417 1.21.903 2.192 1.33.982.428 2.94.612 3.656.943.714.33.776.548.776.548s-.162-.45-.274-.617a2.472 2.472 0 00-.365-.377s.448.169.594.29c.147.123.434.318.434.318s-.253-.52-.406-.735c-.152-.215-.497-.524-.497-.524s.325.117.454.226c.154.13.24.19.366.346.126.157.357.548.357.548s-.277-.85-.445-1.128c-.17-.276-.48-.551-.48-.551s.544.325.78.532c.235.206.62.697.62.697l-.864-1.492s.598.5.843.807c.246.308.558.846.558.846-.278-1.044-.875-1.55-1.652-2.235 0 0 .927.699 1.204.889.277.19.66.656.66.656s-.27-.526-.564-.856c-.293-.33-1.243-1.043-1.243-1.043l1.496.776-1.816-1.542 2.296 1.668s-.396-.722-.708-1.2c-.312-.476-.792-1.182-1.188-1.644-.396-.462-.738-.893-1.153-1.142-.415-.249-.735-.23-1.222-.377-.488-.147-1.032-.42-1.702-.502-.67-.084-1.587-.002-2.273.09-.685.093-1.241.2-1.827.423a7.835 7.835 0 00-1.656.903c-.426.308-.653.517-.925.868-.273.35-.667.874-.674 1.222-.007.347.308.617.308.617z" fill="#212121" fill-rule="evenodd" stroke="#212121" stroke-width=".024"/><path d="M2.795 5.03s-.36.665-.491 1.04c-.132.374-.286 1.199-.286 1.199l-.376 2.273-.412 3.894-.125-.137s.19-1.324.176-1.912c-.014-.588-.17-1.101-.222-1.582-.053-.482-.038-.928-.03-1.302.008-.375.063-.663.122-.945.046-.218.176-.6.33-.963.155-.363.34-.853.515-1.21.173-.358.514-.937.514-.937z" fill="#666" fill-rule="evenodd" stroke="#666" stroke-width=".024"/><path d="M1.098 13.312s-.016.524.03 1.324c.045.8.213 2.638.274 3.483.06.845.027 1.174.103 1.588.075.413.274.89.274.89s.46 1.131.833 1.714c.374.582 1.428 1.736 1.428 1.736s.892 1.002 1.416 1.324c.524.323 1.19.504 1.645.606.455.102.982.091 1.04.091.056 0 .713-.084 1.118-.251.406-.167 1.257-.788 1.257-.788s1.198-.867 1.747-1.394c.55-.526 1.5-1.716 1.53-1.758.092-.132.384-.858.537-1.314.153-.456.275-.953.377-1.416.103-.463.24-1.36.24-1.36l.17-1.038s.164-1.038.184-1.6c.02-.561-.087-1.744-.087-1.744l-.177.373s.006 1.233-.044 1.794c-.051.56-.151.979-.25 1.52-.096.54-.152 1.29-.333 1.724-.18.433-.394.6-.628.868-.233.267-.526.59-.765.73-.24.142-.38.227-.583.183-.203-.043-.232-.22-.48-.422-.246-.201-1.016-.765-1.016-.765s-.5-.332-.872-.479c-.374-.147-.987-.245-1.297-.181-.31.064-.93.47-1.268.488-.34.018-.49-.139-.692-.229-.201-.09-.388-.24-.68-.296-.293-.057-.712.04-1.13.171-.418.132-.848.412-1.18.61-.33.199-.524.484-.82.532-.293.049-.61-.11-.832-.274-.223-.164-.358-.42-.457-.64-.1-.218-.148-.639-.148-.639.024-.23-.326-5.01-.326-5.01zm3.553 7.023c.112.002.238.02.383.023.288.003.993.114 1.039.114.046 0 .688.199.982.251.295.053.72.091.777.08.057-.011.649-.096.993-.16.345-.064.744-.21 1.074-.228.33-.018.693.014.88.091.185.078.168-.001.25.206.083.207-.033.699-.125 1.005-.092.306-.245.553-.4.81-.154.258-.212.542-.422.743-.211.201-.643.342-.891.343-.248 0-.387-.01-.571-.252-.184-.242-.023-.942-.171-1.187-.15-.246-1.623-.344-1.896-.058-.274.287-.144.98-.332 1.131-.26.21-.435.155-.628.08s-.696-.525-.696-.525c-.162-.204-.204-.455-.4-.788-.196-.334-.194-.62-.217-.914-.023-.294-.114-.552.068-.685a.467.467 0 01.303-.08z" fill="#666" fill-rule="evenodd" stroke="#666" stroke-width=".024"/><path d="M6.13 16.256s-.325.035-.451.129c-.127.094-.292.215-.388.38a1.86 1.86 0 00-.202.548c-.03.164-.028.225-.018.351.01.126.04.305.123.425.047.068.08.13.162.186a.95.95 0 00.3.12c.284.047.733-.032.733-.032s-.465-.014-.628-.054c-.162-.04-.221-.035-.333-.148-.111-.112-.151-.258-.177-.436-.027-.178.01-.436.056-.605.047-.17.103-.285.194-.404.09-.12.162-.217.275-.3.114-.084.355-.16.355-.16zm2.89.173s.232.018.365.057c.133.038.302.107.41.188a.795.795 0 01.275.383c.069.187.086.46.08.674-.006.213-.1.377-.24.548-.14.17-.182.184-.274.228-.091.045-.27.079-.434.092-.163.013-.468-.114-.468-.114s.286.023.423 0c.137-.024.258-.06.388-.138a.794.794 0 00.32-.33c.064-.141.098-.301.093-.46-.008-.242-.044-.441-.15-.591-.106-.15-.188-.25-.28-.31-.09-.06-.51-.227-.51-.227z" fill="#212121" fill-rule="evenodd" stroke="#212121" stroke-width=".012"/><path d="M5.89 18.028s.27-.03.388 0c.12.029.203.079.309.16.106.08.203.246.308.33a.932.932 0 00.309.184c.116.037.233.06.377.034.143-.026.328-.148.445-.217.117-.069.163-.11.263-.183.099-.072.222-.19.33-.251.11-.062.185-.112.31-.126.123-.014.41.069.41.069s-.277.001-.4.045c-.122.044-.195.124-.32.206-.123.082-.28.196-.422.286-.143.089-.285.202-.434.25-.148.05-.232.085-.361.079a.992.992 0 01-.404-.101c-.13-.067-.288-.264-.388-.366-.1-.101-.098-.163-.217-.24-.12-.076-.503-.16-.503-.16zm4.135 2.912s-.564.096-.8.126c-.236.03-.314.021-.524.057-.21.036-.4.067-.627.104-.226.037-.258.027-.53.024a1.968 1.968 0 01-.54-.06c-.2-.046-.398-.064-.616-.128a7.301 7.301 0 00-.594-.146 34.241 34.241 0 01-.658-.148s.357.223.56.308c.203.085.4.13.65.194s.492.132.702.174c.21.042.343.082.6.066.259-.016.362-.045.547-.08.185-.037.395-.062.613-.106.22-.044.468-.106.68-.168.21-.062.537-.217.537-.217zM4.677 10.691c.245.072.598.179.824.259.226.08.426.107.533.21.107.102.13.193.13.29a.345.345 0 01-.114.243c-.065.064-.14.088-.258.113-.12.025-.288.005-.453 0-.164-.005-.334.007-.533-.033-.2-.04-.45-.156-.646-.226s-.33-.155-.533-.194c-.204-.038-.465-.073-.678-.016-.213.058-.364.23-.55.34-.16.094-.361.27-.484.274-.123.003-.115-.01-.161-.08-.046-.071-.028-.223-.016-.324.012-.1.014-.159.08-.274.067-.116.21-.254.356-.372a2.44 2.44 0 01.516-.323c.188-.084.37-.162.598-.178.229-.015.51.064.743.114.232.049.4.105.646.177zm6.687-.048c-.224.064-.428.155-.662.226-.235.07-.57.1-.743.194-.173.093-.263.168-.307.274-.044.106-.047.178.016.275.063.097.212.155.37.194.16.039.38.032.567 0 .186-.033.314-.107.533-.194.218-.088.485-.22.775-.34.29-.119.74-.299.97-.37.228-.073.275-.101.387-.098.112.003.164.006.258.081s.135.252.226.388c.09.135.213.34.323.42.11.08.202.126.275.097.073-.03.067-.047.08-.162.015-.115-.064-.33-.112-.5-.05-.17-.1-.355-.178-.518-.08-.162-.15-.359-.29-.452-.142-.093-.29-.085-.47-.08-.178.004-.356.063-.58.129-.225.065-.52.202-.76.274-.24.072-.454.097-.678.162z" fill="#212121" fill-rule="evenodd" stroke="#212121" stroke-width=".012"/><path d="M1.307 11.816a.897.897 0 01.118-.29.505.505 0 01.207-.189c.102-.054.233-.08.396-.107.164-.027.403-.043.594-.061.19-.019.31-.033.547-.04.237-.008.596 0 .875.01.278.009.542.02.798.045.256.026.503.063.736.107.234.044.466.086.665.153.2.067.397.15.527.24.13.088.2.15.26.254a.79.79 0 01.093.351 1.78 1.78 0 01-.04.484 3.744 3.744 0 01-.2.621 3.98 3.98 0 01-.282.56c-.107.178-.22.384-.363.504-.142.12-.236.154-.445.22-.21.065-.537.104-.808.121-.271.018-.557-.002-.813-.015-.257-.013-.438-.018-.727-.061a8.879 8.879 0 01-1.002-.214A2.98 2.98 0 011.9 14.3c-.115-.06-.103-.05-.168-.117a.959.959 0 01-.195-.295c-.065-.144-.112-.383-.153-.575a5.874 5.874 0 01-.123-1.12c.005-.154.017-.266.046-.377zm-.493-.9c-.022.003-.033.413-.066.641.026.082.058.152.093.24.084.179.132.642.17.828.037.187.07.44.112.621.042.182.087.32.133.469.046.15.106.31.168.431.063.121.088.185.215.288.127.104.318.18.538.258.22.08.448.146.757.204.308.059.779.115 1.098.14a6.6 6.6 0 001.756-.079c.26-.058.427-.094.6-.22.172-.127.259-.293.392-.503.134-.21.306-.531.41-.753.103-.222.158-.411.225-.57.067-.16.096-.3.174-.388a.412.412 0 01.235-.142c.11-.034.289-.032.42-.02.13.011.248.031.332.08.084.05.092.085.133.167.04.083.063.178.097.323.034.145.088.325.154.54.065.214.16.545.245.743.084.198.145.333.235.448a.85.85 0 00.277.244c.13.08.31.142.51.194.2.052.47.078.687.102.215.023.376.037.603.04a10.1 10.1 0 00.757-.03c.253-.017.502-.026.757-.071a4.46 4.46 0 00.768-.204.862.862 0 00.307-.183 1.21 1.21 0 00.244-.33 2.72 2.72 0 00.206-.485c.06-.183.126-.447.174-.611.048-.165.07-.26.112-.377.042-.117.077-.252.133-.326.057-.073.092-.084.164-.122.072-.038.188-.068.244-.12.056-.053.1-.377.1-.523.003-.145.02-.242-.03-.275-.05-.032-.281-.032-.416-.04a3.961 3.961 0 01-.4-.04c-.132-.02-.208-.048-.398-.081a20.532 20.532 0 00-1.453-.194c-.276-.026-.642-.065-.952-.071a8.48 8.48 0 00-.9.03c-.324.026-.748.079-1.043.133-.295.053-.507.128-.727.173-.22.045-.395.083-.593.102a3.228 3.228 0 01-.594.01c-.188-.018-.294-.053-.532-.112-.237-.06-.593-.177-.89-.255-.296-.078-.577-.154-.89-.214a9.473 9.473 0 00-.982-.142 15.957 15.957 0 00-1.197-.04c-.341-.003-.556.014-.85.02-.292.005-.606.019-.91.028-.303.009-.687.012-.912.025zm8.294 1.658c.01-.087.018-.26.046-.356a.616.616 0 01.102-.214.748.748 0 01.195-.188c.082-.055.162-.083.296-.128.135-.045.343-.097.512-.127.17-.03.32-.037.5-.056.18-.019.386-.043.579-.056a8.788 8.788 0 011.187 0c.2.015.395.04.598.066.204.026.437.053.625.092.187.04.378.083.5.137a.62.62 0 01.24.153c.062.067.09.12.119.23.028.108.02.25.015.417a4.321 4.321 0 01-.061.58c-.033.17-.072.277-.123.433-.052.156-.124.35-.19.504-.065.154-.102.312-.2.418-.096.105-.217.139-.342.198a2.5 2.5 0 01-.404.153 5.894 5.894 0 01-1.13.168 7.362 7.362 0 01-1.34-.051c-.227-.028-.491-.051-.665-.112a.955.955 0 01-.38-.209 1.444 1.444 0 01-.291-.412c-.073-.146-.092-.28-.148-.453-.055-.174-.143-.42-.184-.591-.04-.17-.06-.261-.064-.362a1.27 1.27 0 01.008-.234z" fill="#666" stroke="#666" stroke-width=".015"/><path fill="none" d="M0 .241h17.198V26.7H0z"/></svg>