<svg xmlns="http://www.w3.org/2000/svg" width="64.999" height="101.851" viewBox="0 0 17.198 26.949"><g><path d="M9.277.008C8.469-.013 6.863.19 7.572.116 6.886.2 6.279.309 5.637.544c-.654.24-1.31.61-1.782.944-.446.315-.752.59-1.058.974-.209.263-.562.67-.737 1.189a2.27 2.27 0 00-.217.455c-.05.142-.087.26-.095.276-.205.413-.352.847-.52 1.316-.167.464-.424 1.13-.554 1.71a7.381 7.381 0 00-.182 1.426c-.021.546.04 1.169.072 1.57.017.207.04.369.06.513-.018.02-.036.039-.053.06a.292.292 0 00-.001.002.536.536 0 00-.043.065l.017-.027c-.14.196-.195.405-.216.57-.02.168-.01.319-.01.329-.008.307.068.555.068.545.008.087.005.343.027.608.022.255.062.49.082.67.024.21.041.384.062.617.013.148.034.3.048.428.006.055.01.118.011.165v.019a1.221 1.221 0 00-.143.46l-.001.028a2.23 2.23 0 00.112.829c.06.195.145.374.264.535a.292.292 0 00.01.016s0 0 0 0c.034.045.068.083.101.117.03.27.067.552.132.88.134.673.356 1.394.572 2.11.221.734.523 1.65.766 2.31.208.563.303 1.023.655 1.622 0 0 0 0 0 0a.292.292 0 00.006.01s0 0 0 0a.292.292 0 00.002.004c.017.029.035.06.055.09.391.64.991 1.293 1.508 1.746.503.44 1.024.798 1.54 1.002.463.183.83.225 1.225.214.437-.013.833-.107 1.377-.311a9.023 9.023 0 002.019-1.077c.653-.472 1.4-1.102 1.945-1.856.547-.756.778-1.493 1.093-2.285.35-.884.671-2.034.928-2.851.092-.293.187-.564.28-.834a.939.939 0 00.226-.117c.108-.075.18-.16.198-.178.212-.22.314-.47.368-.587v0a.18.18 0 01.001-.002.292.292 0 000-.001c.065-.138.145-.317.178-.54.018-.125.015-.232.008-.31l-.009-.088-.001-.015-.001-.056c.022-.054.053-.132.084-.23.052-.162.083-.288.151-.538.074-.27.196-.748.272-1.027.07-.256.154-.474.217-.77a.292.292 0 000-.003c.054-.25.097-.498.11-.776.013-.278 0 0 0 0 .011-.206.055-.567-.061-.944-.026-.084-.063-.207-.142-.34a.44.44 0 00-.034-.05c.05-.23.076-.461.105-.7.059-.475.075-1.101.076-1.597a12.843 12.843 0 00-.06-1.454 6.65 6.65 0 00-.233-1.23l-.002-.008v0-.001a.292.292 0 00-.002-.004.292.292 0 00-.001-.004v.003a5.75 5.75 0 00-.196-.523.752.752 0 00-.072-.408.292.292 0 00-.01-.023s0 0 0 0-.374-.706-.7-1.216c-.302-.474-.76-1.17-1.185-1.677-.357-.427-.715-.916-1.265-1.26a.292.292 0 00-.007-.005l-.011-.008.002.002a.292.292 0 00-.007-.004v0a.292.292 0 00-.017-.01v0C12.499.7 12.06.693 11.72.586c-.356-.112-.97-.424-1.76-.531a5.713 5.713 0 00-.682-.047zm7.236 6.158v.003a.292.292 0 000-.002v0s0 0 0 0a.292.292 0 000-.001zm-.331 6.982a.292.292 0 00-.003.018l.001-.01zm-13.09 10.74s0 0 0 0z" fill="#fafafa" stroke="#fafafa" stroke-width=".012"/><path d="M9.27.543a12.38 12.38 0 00-1.632.105c-.67.082-1.227.183-1.816.4a7.706 7.706 0 00-1.658.878c-.423.299-.67.52-.947.87-.229.287-.558.69-.673 1.09-.171.242-.218.535-.316.734-.184.37-.326.785-.496 1.26-.17.472-.42 1.13-.535 1.646-.112.5-.15.86-.17 1.33-.019.487.038 1.096.071 1.504.026.322.073.57.096.774a.667.667 0 00-.2.173v0c-.166.21-.138.474-.141.62-.005.209.052.34.066.484.014.156.009.385.028.613.019.225.058.452.08.657.024.212.042.392.063.628.012.128.032.28.047.417.015.138.023.266.015.326-.009.07-.022.09-.052.148-.03.057-.081.15-.094.279a.092.092 0 000 .008s0 0 0 0c-.02.227.04.477.09.64.05.16.104.273.19.386.055.073.122.13.182.18.033.324.072.648.149 1.037.125.63.342 1.34.559 2.059.218.722.518 1.635.756 2.278.223.605.302 1.013.623 1.553a.092.092 0 00.004.006l-.001-.002-.003-.005.048.08c.348.568.928 1.206 1.405 1.623.472.413.955.737 1.384.907.408.162.653.186 1.013.176.374-.01.687-.083 1.203-.277a8.59 8.59 0 001.894-1.01c.626-.45 1.334-1.056 1.825-1.735.492-.68.707-1.357 1.029-2.17.333-.837.654-1.981.915-2.813.132-.417.266-.786.389-1.152a.468.468 0 00.32-.076c.051-.036.084-.074.12-.111.125-.13.21-.316.269-.442v-.001c.06-.127.113-.256.134-.394.021-.145-.007-.25-.007-.284-.002-.102-.012-.148-.001-.206.006-.032.057-.134.108-.294.051-.16 0 0 0 0 .047-.145.076-.262.145-.516.071-.26.194-.738.273-1.027.078-.283.156-.491.21-.743v0a4.24 4.24 0 00.099-.692v0c.011-.226.033-.524-.04-.76a1.006 1.006 0 00-.09-.225.49.49 0 00-.17-.17c.092-.243.126-.554.17-.918.053-.428.071-1.048.073-1.533.001-.483-.01-.985-.057-1.392a6.034 6.034 0 00-.215-1.14v-.002a.092.092 0 000-.001 5.862 5.862 0 00-.25-.643.229.229 0 00.008-.22s-.374-.702-.678-1.18c-.298-.466-.753-1.154-1.144-1.621-.374-.447-.707-.886-1.154-1.16-.444-.274-.787-.263-1.224-.4-.439-.138-.983-.418-1.672-.512A5.209 5.209 0 009.27.543z" fill="#212121" stroke="#212121" stroke-width=".012"/><g fill="#fafafa"><path d="M14.968 11.89c-.062.77-.106 1.284-.148 1.98-.042.699.028 1.463-.1 2.208-.128.744-.414 1.387-.678 2.225-.263.837-.584 1.98-.91 2.799-.325.819-.534 1.473-1.002 2.12-.468.648-1.162 1.244-1.775 1.686a8.42 8.42 0 01-1.843.982c-.507.19-.781.254-1.132.263-.35.01-.535-.006-.926-.16-.39-.155-.86-.467-1.32-.87-.458-.4-1.033-1.034-1.361-1.57-.328-.534-.4-.925-.635-1.562a44.246 44.246 0 01-.751-2.266c-.217-.718-.432-1.424-.554-2.038-.122-.615-.15-1.06-.207-1.633a26.974 26.974 0 01-.13-1.808 21.169 21.169 0 01.02-1.78c.034-.7.103-1.425.203-2.407.1-.981.416-3.482.416-3.482l1.313-2.92 3.146-.917 5.732 1.069 2.142 1.354s.68 2.964.73 4.097c.052 1.133-.167 1.863-.23 2.63z"/><path d="M14.794 12.41c.135-.304.306-.555.455-.701.148-.146.234-.187.35-.22.116-.032.218-.048.31.004.092.052.121.114.17.275.05.16.042.459.03.683a4.024 4.024 0 01-.094.657c-.05.232-.127.437-.207.73-.08.293-.203.772-.273 1.028-.07.255-.098.37-.142.507-.044.138-.098.225-.115.322s0 .165 0 .248c0 .083.024.15.01.248-.015.1-.06.214-.116.334-.056.12-.15.302-.228.383-.077.08-.097.105-.187.122-.091.017-.323-.066-.323-.066l.064-3.426s.164-.822.299-1.127zm-13.049-.837c-.034-.071-.122-.258-.243-.284-.12-.027-.246.04-.335.154-.09.114-.09.33-.093.49 0 .16.048.279.065.458s.01.404.028.615c.018.21.057.436.08.65.024.214.042.396.063.633.02.237.088.586.06.79-.025.206-.129.253-.144.42-.016.169.036.417.08.564a.883.883 0 00.155.317c.073.097.278.25.278.25z" stroke="#fafafa" stroke-width=".012"/></g><path d="M6.738 18.468a1.208 1.208 0 00-.53.104c-.222.099-.403.268-.556.41-.064.059-.127.106-.198.179a.788.788 0 00-.182.302.64.64 0 00-.037.31.582.582 0 00.051.155c.014.11.028.22.041.297.035.204.073.393.122.579.05.186.09.347.175.536.085.189.23.439.342.587.113.149.181.217.306.314s.267.194.443.253c.176.06.395.064.599.082.204.018.441.043.626.025.185-.017.346-.04.472-.112.127-.073.22-.206.32-.32.101-.113.185-.23.282-.362.097-.132.177-.237.25-.39.073-.15.114-.32.173-.518.055-.18.152-.552.17-.623a.56.56 0 00.088-.298.753.753 0 00-.082-.36 2.592 2.592 0 00-.397-.487 2.38 2.38 0 00-.487-.403 1.333 1.333 0 00-.493-.173c-.207-.027-.36.024-.449.03-.147.014-.278.036-.34.033-.086-.003-.122-.015-.248-.041-.055-.012-.23-.104-.461-.11z" fill="#666"/><path d="M5.524 19.544c.057-.176.161-.232.309-.37.147-.135.325-.29.482-.36a.882.882 0 01.417-.082c.142.004.296.08.414.105.118.024.18.042.292.046.111.004.245-.022.372-.033.128-.01.258-.05.392-.032.134.017.254.06.396.14.142.082.299.227.43.36.132.132.296.328.355.432.06.104.05.123.047.224 0 .1-.079.192-.159.34-.08.148-.17.278-.322.46-.152.185-.394.47-.609.62a1.801 1.801 0 01-.643.298 1.45 1.45 0 01-.64.012 1.247 1.247 0 01-.487-.254c-.143-.112-.235-.248-.355-.402a4.24 4.24 0 01-.36-.52c-.108-.19-.22-.486-.291-.636-.071-.15-.096-.172-.04-.348z" fill="#212121" stroke="#212121" stroke-width=".012"/><path d="M15.285 12.355s.099-.164.17-.21a.434.434 0 01.23-.06c.066.003.115.008.149.046.034.039.022.055.023.15 0 .095-.013.192-.054.415-.041.223-.222.916-.222.916" stroke="#212121" stroke-width=".094" stroke-linecap="round" fill="none"/><path d="M6.971 15.687s-.12-.228-.195-.317a1.755 1.755 0 00-.195-.204 1.021 1.021 0 00-.2-.147.587.587 0 00-.21-.042c-.053-.002-.073-.007-.102.012-.029.019-.043.045-.053.09a.473.473 0 00.015.18c.014.059.025.109.064.16a.462.462 0 00.17.129c.067.03.159.05.223.047a.267.267 0 00.15-.051c.041-.03.067-.088.09-.118l.044-.06m1.172.193s.171-.144.262-.215c.09-.07.198-.161.279-.208a.898.898 0 01.194-.084.55.55 0 01.16-.036c.05 0 .098.01.131.025.033.016.049.025.065.057a.24.24 0 01.013.124.659.659 0 01-.141.272.58.58 0 01-.158.123.868.868 0 01-.226.073.44.44 0 01-.152.005c-.044-.007-.088-.016-.11-.04-.022-.022-.02-.032-.023-.072-.005-.04.01-.116.015-.162l.012-.118" stroke-width=".05" fill="#212121" stroke="#212121" stroke-linecap="round"/><path d="M6.297 13.79s-.168.047-.264.108c-.096.06-.205.157-.294.266a1.71 1.71 0 00-.225.385 1.414 1.414 0 00-.123.414 1.05 1.05 0 00.037.415c.04.12.1.2.184.286.082.086.212.173.308.218a.918.918 0 00.567.048m2.477-1.895s.208.07.31.142c.102.07.217.185.287.287.07.102.108.207.135.306a.81.81 0 01.031.277 1.37 1.37 0 01-.073.352 1.23 1.23 0 01-.156.323.99.99 0 01-.252.246c-.084.052-.145.062-.229.08a.84.84 0 01-.27.025.488.488 0 01-.158-.07" stroke-width=".075" stroke="#212121" fill="none" stroke-linecap="round"/><path d="M13.134 5.044c.161.598.705 1.073.938 1.678.233.606.36 1.296.44 1.92.079.626.024 1.213.05 1.81.026.598.104 1.364.103 1.776 0 .41-.11.678-.043.69.066.014.406-.008.463-.083.056-.074.085-.418.113-.601.028-.183-.022-.377.059-.496.08-.12.23-.1.321-.174.091-.075.124-.068.216-.264.093-.195.138-.53.188-.938.05-.407.07-1.027.07-1.506 0-.48-.01-.976-.055-1.367a5.8 5.8 0 00-.207-1.102c-.088-.28-.222-.6-.36-.87-.136-.27-.246-.408-.473-.736a4.917 4.917 0 00-.834-.914c-.32-.276-.591-.864-1.022-.615-.43.249-.129 1.194.033 1.792zM3.783 4.36s-.542.575-.705.836c-.163.262-.207.393-.306.692-.099.298-.153.65-.248 1.102-.095.452-.23 1.096-.317 1.61-.086.515-.154 1.085-.203 1.476-.049.39-.048.578-.097.868-.049.29-.162.624-.196.867s.03.44-.032.583c-.061.144-.086.052-.248-.003-.162-.054-.056-.188-.057-.41 0-.222.06-.383.057-.657 0-.275-.08-.573-.113-.983-.033-.41-.088-1.015-.07-1.478.018-.463.054-.8.163-1.29.11-.488.357-1.144.528-1.62.17-.476.312-.885.486-1.236s.207-.8.531-.876c.325-.076.826.519.826.519z" fill="#666" stroke="#666" stroke-width=".012"/><path d="M3.017 4.703s3.133.04 4.18.455c1.048.413 1.157.884 2.1 1.307.942.423 2.829.622 3.514.949.686.327.743.537.743.537s-.151-.437-.257-.598c-.106-.16-.348-.367-.348-.367s.43.167.57.286c.14.12.414.31.414.31s-.238-.503-.383-.712c-.145-.21-.473-.51-.473-.51s.312.115.434.222c.148.128.23.186.35.338.12.152.338.532.338.532s-.258-.824-.417-1.092c-.159-.27-.457-.538-.457-.538s.522.32.746.522c.225.202.592.68.592.68l-.817-1.45s.57.489.804.788c.233.3.528.822.528.822-.256-1.01-.826-1.504-1.568-2.173 0 0 .886.684 1.151.87.266.187.63.64.63.64s-.255-.51-.535-.831c-.28-.321-1.187-1.02-1.187-1.02l1.434.765-1.734-1.507 2.195 1.634s-.373-.701-.67-1.165c-.295-.463-.75-1.148-1.127-1.6-.376-.45-.702-.87-1.1-1.113-.397-.244-.706-.23-1.174-.377-.468-.147-.99-.416-1.635-.503-.645-.088-1.531-.02-2.193.063-.662.08-1.2.18-1.767.387a7.556 7.556 0 00-1.607.852c-.414.293-.635.492-.902.827-.266.335-.652.836-.663 1.17-.01.336.29.599.29.599z" fill="#212121" fill-rule="evenodd" stroke="#212121" stroke-width=".023"/><path d="M3.009 9.073c.102-.092.224-.248.328-.303.105-.056.1-.075.255-.06.155.017.386.19.612.28.226.09.532.216.743.255.211.038.34.03.5.014.161-.017.342-.054.458-.11a.585.585 0 00.24-.181.484.484 0 00.09-.236.37.37 0 00-.032-.237c-.043-.078-.089-.116-.226-.187s-.353-.1-.613-.165a35.318 35.318 0 00-.945-.221c-.252-.055-.39-.093-.56-.112a2.191 2.191 0 00-.466-.014c-.16.013-.352.027-.484.1-.132.072-.206.192-.284.295-.08.102-.113.184-.188.314-.075.129-.192.326-.26.462s-.12.243-.153.35c-.033.106-.037.173-.056.28-.02.106-.048.256-.057.36-.01.102-.038.186 0 .254.035.067.096.11.165.116.07.005.113-.01.194-.095.081-.084.122-.293.199-.445.076-.152.128-.266.223-.384s.218-.237.32-.33z" fill="#212121" stroke="#212121" stroke-width=".012"/><circle transform="rotate(.654)" r=".001" cy="8.151" cx="11.066" fill="#999" stroke="#000" stroke-width=".012"/><path d="M11.391 9.283c-.152.047-.428.142-.634.186a3.588 3.588 0 01-.598.08c-.177.007-.316.01-.456-.03-.14-.041-.288-.097-.367-.198a.46.46 0 01-.084-.343.405.405 0 01.152-.262c.085-.073.196-.092.344-.137.148-.045.355-.07.546-.116.191-.046.39-.108.599-.16.208-.052.478-.13.651-.15.174-.022.227-.025.378-.005s.352.075.516.146c.165.07.318.173.462.277.145.105.312.229.4.347a.795.795 0 01.146.327c.034.13.026.293.039.448.013.155.03.33.038.483.01.153.042.328.012.43-.029.103-.069.146-.116.175-.047.03-.078.038-.123.016-.046-.021-.048-.053-.095-.15-.046-.097-.104-.3-.153-.44-.05-.142-.078-.288-.145-.406a1.261 1.261 0 00-.242-.302 1.302 1.302 0 00-.331-.24 1.156 1.156 0 00-.377-.093.91.91 0 00-.28.024c-.096.019-.13.045-.283.093z" fill="#212121" stroke="#212121" stroke-width=".012"/><path d="M1.554 12.18c-.01.107-.014.213-.02.317a21.169 21.169 0 00-.02 1.78c.019.599.074 1.234.13 1.808.058.573.086 1.018.208 1.633.121.614.337 1.32.553 2.038.217.718.517 1.63.752 2.266.235.637.307 1.028.635 1.563.328.535.903 1.169 1.361 1.57.46.402.93.714 1.32.869.39.154.576.17.926.16.35-.01.625-.072 1.132-.262a8.42 8.42 0 001.842-.983c.614-.442 1.307-1.038 1.776-1.685.468-.648.677-1.302 1.002-2.121.325-.82.646-1.962.91-2.8.264-.837.55-1.48.678-2.224.128-.745.059-1.51.1-2.206.023-.375.046-.703.072-1.04-.01-.024-.017-.047-.025-.063 0-.01-.01-.017-.014-.023 0-.005-.01-.01-.014-.011l-.028.014a.596.596 0 00-.098.07.293.293 0 00-.059.075.104.104 0 00-.016.043v.193c0 .118-.01.282-.012.464-.01.18-.015.38-.028.569-.01.094-.014.186-.023.27-.01.086-.018.166-.029.235a5.594 5.594 0 01-.085.425 9.052 9.052 0 01-.245.845 15.06 15.06 0 01-.136.389l-.129.364a7.436 7.436 0 01-.2.508 2.545 2.545 0 01-.161.3 1.763 1.763 0 01-.2.26 2.022 2.022 0 01-.22.216 2.515 2.515 0 01-.238.18 6.584 6.584 0 01-.39.24 8.281 8.281 0 01-.462.244 4.18 4.18 0 01-.327.136 1.808 1.808 0 01-.157.047 1.174 1.174 0 01-.214.033c-.022 0-.043 0-.063-.002a1.308 1.308 0 01-.203-.034.53.53 0 01-.252-.161c-.035-.04-.07-.083-.112-.134a.435.435 0 01-.053-.084 1.101 1.101 0 01-.066-.202c-.01-.036-.016-.074-.024-.113a3.186 3.186 0 00-.053-.237 1.068 1.068 0 00-.092-.236 2.69 2.69 0 00-.15-.241 3.954 3.954 0 00-.488-.577 1.623 1.623 0 00-.097-.085 6.055 6.055 0 00-.17-.133 2.833 2.833 0 00-.278-.183 3.427 3.427 0 00-.46-.21 2.11 2.11 0 00-.327-.084.86.86 0 00-.178-.01 1.642 1.642 0 00-.38.05 1.39 1.39 0 00-.164.05.578.578 0 00-.12.065c-.035.022-.065.045-.093.065a.385.385 0 01-.088.047.252.252 0 01-.11.006.418.418 0 01-.124-.047 1.426 1.426 0 01-.117-.084c-.039-.032-.077-.066-.117-.098a1.82 1.82 0 00-.122-.087.497.497 0 00-.223-.058 1.796 1.796 0 00-.256.014c-.056.007-.113.016-.167.024a.876.876 0 00-.13.027.478.478 0 00-.092.039c-.057.03-.116.074-.228.14a4.08 4.08 0 00-.364.229 2.6 2.6 0 00-.277.223 1.209 1.209 0 00-.167.183 3.562 3.562 0 00-.227.344c-.094.16-.178.322-.248.447a1.31 1.31 0 00-.048.09l-.04.087-.064.159c-.02.05-.041.096-.065.139a.51.51 0 01-.088.117 1.896 1.896 0 01-.158.142.617.617 0 01-.113.066.47.47 0 01-.203.035.437.437 0 01-.148-.04 1.071 1.071 0 01-.142-.091c-.047-.037-.095-.078-.145-.12-.05-.043-.101-.087-.156-.128a8.672 8.672 0 01-.368-.294 4.664 4.664 0 01-.184-.167 2.444 2.444 0 01-.161-.168 3.744 3.744 0 01-.247-.32 2.379 2.379 0 01-.328-.762 5.328 5.328 0 01-.051-.234c-.017-.085-.033-.178-.052-.281a9.133 9.133 0 01-.096-.704 13.907 13.907 0 01-.061-.863c0-.078-.01-.17-.01-.273v-.332c0-.234.01-.488.011-.722.01-.468.023-.858.023-.858a.41.41 0 00-.053-.028l-.021-.008zm4.904 5.807a.525.525 0 01.204.023c.06.019.119.045.19.07.036.012.074.03.113.05.04.02.08.043.119.064a1.618 1.618 0 00.171.08.669.669 0 00.13.02c.022 0 .04 0 .058-.004.037-.007.077-.022.153-.044a.903.903 0 00.136-.054l.166-.077a2.508 2.508 0 01.176-.07.77.77 0 01.085-.021.358.358 0 01.16.003 1.036 1.036 0 01.177.07l.095.054c.064.037.13.08.196.12.066.04.131.08.195.114l.183.099a5.395 5.395 0 01.348.207 7.185 7.185 0 01.333.238c.046.033.087.062.123.092l.052.045a.592.592 0 01.088.103c.014.02.026.04.04.063.011.023.023.046.032.07.01.022.018.046.026.07.01.023.014.047.02.07.01.025.01.05.012.075.01.05.011.104.013.16v.18c0 .064 0 .135-.013.21-.01.075-.02.154-.035.233a5.453 5.453 0 01-.102.45 2.876 2.876 0 01-.119.355c-.044.11-.094.218-.152.345l-.09.202-.101.214a2.579 2.579 0 01-.179.31 3.633 3.633 0 01-.298.35 2.397 2.397 0 01-.17.152 1.541 1.541 0 01-.302.18 1.51 1.51 0 01-.347.108 1.908 1.908 0 01-.252.03 4.488 4.488 0 01-.594-.013 3.613 3.613 0 01-.368-.06 5.917 5.917 0 01-.565-.144 5.758 5.758 0 01-.321-.106c-.094-.034-.18-.063-.258-.092a2.924 2.924 0 01-.219-.086 1.48 1.48 0 01-.19-.105.913.913 0 01-.17-.148.809.809 0 01-.077-.093 1.212 1.212 0 01-.118-.212 2.086 2.086 0 01-.047-.115 5.486 5.486 0 01-.08-.242c-.027-.082-.052-.165-.08-.247a8.349 8.349 0 01-.163-.52 4.694 4.694 0 01-.064-.266 3.218 3.218 0 01-.065-.493c-.01-.08-.01-.158-.01-.233 0-.075 0-.147.01-.215 0-.034.01-.067.012-.098 0-.032.011-.062.018-.091a1.45 1.45 0 01.095-.283.878.878 0 01.063-.11 1.51 1.51 0 01.121-.156.815.815 0 01.15-.127c.072-.051.15-.1.23-.16.08-.06.172-.13.265-.198a3.412 3.412 0 01.276-.182c.044-.024.088-.05.132-.073a2.32 2.32 0 01.13-.066 1.051 1.051 0 01.19-.066.507.507 0 01.06-.01z" fill="#666" stroke="#666" stroke-width=".037"/><path d="M1.63 10.017a.825.825 0 01.11-.271.468.468 0 01.194-.177c.096-.05.218-.075.371-.1.153-.025.378-.04.556-.057.178-.017.29-.031.512-.038.222-.007.558 0 .819.01.26.008.507.018.746.042.24.025.471.06.69.1.218.04.436.08.622.143.186.063.372.14.493.224a.69.69 0 01.244.239.734.734 0 01.086.328c.012.132 0 .279-.038.453a3.525 3.525 0 01-.186.58 3.668 3.668 0 01-.264.526c-.1.166-.207.359-.34.47-.133.114-.22.145-.416.206a3.743 3.743 0 01-.757.115c-.253.016-.52-.002-.76-.015-.24-.012-.41-.017-.68-.057a8.314 8.314 0 01-.939-.2 2.79 2.79 0 01-.507-.195c-.109-.058-.097-.048-.158-.11a.896.896 0 01-.182-.276c-.061-.136-.105-.358-.144-.54a5.636 5.636 0 01-.086-.542 4.028 4.028 0 01-.029-.505c0-.144.016-.248.043-.353zm-.46-.841c-.022.002-.032.386-.063.6.024.076.054.14.087.223.08.168.124.6.159.776.035.175.066.41.105.58.04.17.081.3.125.44.043.14.099.29.157.403.058.113.082.173.201.27.12.097.297.168.503.24.206.075.42.137.709.192.289.055.729.107 1.028.13a6.18 6.18 0 001.643-.073c.243-.054.4-.088.561-.207.162-.118.243-.273.368-.47a6.97 6.97 0 00.383-.705c.097-.207.148-.384.21-.533.063-.15.09-.28.163-.362a.385.385 0 01.22-.134c.104-.032.27-.03.393-.02.122.01.233.03.311.077.078.047.086.08.124.156.037.077.06.166.091.302.032.135.082.304.144.505.061.2.151.51.23.696.079.185.136.312.22.419a.795.795 0 00.258.229c.123.073.292.132.48.18.186.05.44.074.64.096.202.022.353.035.566.038.212.003.472-.013.708-.028.236-.016.47-.025.709-.067a4.08 4.08 0 00.718-.19.807.807 0 00.287-.172 1.15 1.15 0 00.229-.31 2.44 2.44 0 00.192-.453c.057-.171.118-.418.163-.572.045-.154.067-.243.105-.352.04-.11.071-.237.125-.305.053-.07.086-.08.153-.115s.176-.063.229-.112c.052-.05.093-.353.094-.49 0-.135.017-.226-.03-.256-.045-.031-.263-.03-.39-.037a3.715 3.715 0 01-.373-.038c-.124-.02-.195-.045-.373-.077a19.204 19.204 0 00-1.36-.18c-.258-.025-.6-.062-.89-.067a7.958 7.958 0 00-.843.028c-.303.024-.7.074-.976.124s-.474.12-.68.162c-.206.042-.37.078-.555.095a3.018 3.018 0 01-.556.01c-.176-.017-.275-.05-.498-.105-.222-.055-.555-.165-.833-.238-.277-.073-.54-.144-.833-.2a8.866 8.866 0 00-.919-.134c-.34-.03-.8-.036-1.12-.038-.32-.002-.52.014-.795.02-.274.004-.567.017-.852.025-.284.009-.643.012-.853.024zm7.761 1.55c.01-.081.017-.243.043-.332a.697.697 0 01.278-.376 1.1 1.1 0 01.278-.12c.125-.042.32-.09.478-.12.159-.027.301-.034.47-.051.168-.018.36-.041.54-.053a8.227 8.227 0 011.111 0c.188.014.37.038.56.062.19.025.409.049.584.086.176.037.355.078.47.129.114.05.167.08.224.142a.44.44 0 01.11.215c.027.102.02.235.014.39a5.06 5.06 0 01-.057.544c-.03.158-.067.258-.114.405a6.356 6.356 0 01-.178.472c-.06.143-.096.292-.186.39-.091.099-.204.13-.321.186-.117.056-.228.1-.378.143a5.514 5.514 0 01-1.058.157 6.895 6.895 0 01-1.254-.047c-.212-.027-.46-.048-.623-.105a.894.894 0 01-.354-.196 1.35 1.35 0 01-.273-.385c-.069-.137-.087-.262-.139-.425-.052-.162-.134-.393-.172-.552a1.751 1.751 0 01-.06-.34c0-.093 0-.136.01-.218z" fill="#666" stroke="#666" stroke-width=".014"/></g></svg>