<?xml version="1.0" encoding="UTF-8" standalone="no"?>
<svg
   xmlns:dc="http://purl.org/dc/elements/1.1/"
   xmlns:cc="http://creativecommons.org/ns#"
   xmlns:rdf="http://www.w3.org/1999/02/22-rdf-syntax-ns#"
   xmlns:svg="http://www.w3.org/2000/svg"
   xmlns="http://www.w3.org/2000/svg"
   xmlns:sodipodi="http://sodipodi.sourceforge.net/DTD/sodipodi-0.dtd"
   xmlns:inkscape="http://www.inkscape.org/namespaces/inkscape"
   width="91.168"
   height="32"
   viewBox="0 0 24.122 8.467"
   version="1.1"
   id="svg6"
   sodipodi:docname="glasses.svg"
   inkscape:version="0.92.5 (2060ec1f9f, 2020-04-08)">
  <metadata
     id="metadata12">
    <rdf:RDF>
      <cc:Work
         rdf:about="">
        <dc:format>image/svg+xml</dc:format>
        <dc:type
           rdf:resource="http://purl.org/dc/dcmitype/StillImage" />
      </cc:Work>
    </rdf:RDF>
  </metadata>
  <defs
     id="defs10" />
  <sodipodi:namedview
     pagecolor="#ffffff"
     bordercolor="#666666"
     borderopacity="1"
     objecttolerance="10"
     gridtolerance="10"
     guidetolerance="10"
     inkscape:pageopacity="0"
     inkscape:pageshadow="2"
     inkscape:window-width="1600"
     inkscape:window-height="831"
     id="namedview8"
     showgrid="false"
     inkscape:zoom="3.8061601"
     inkscape:cx="45.584"
     inkscape:cy="16"
     inkscape:window-x="0"
     inkscape:window-y="32"
     inkscape:window-maximized="1"
     inkscape:current-layer="svg6" />
  <path
     d="m 6.4939457,3.7062976 c 0.4,0.118 0.978,0.292 1.348,0.423 0.369,0.13 0.696,0.175 0.872,0.344 0.175,0.168 0.213,0.316 0.211,0.475 a 0.56,0.56 0 0 1 -0.185,0.397 c -0.107,0.105 -0.227,0.144 -0.423,0.185 -0.196,0.04 -0.47,0.008 -0.74,0 -0.269,-0.008 -0.546,0.013 -0.872,-0.053 -0.326,-0.066 -0.736,-0.255 -1.057,-0.37 -0.322,-0.115 -0.539,-0.254 -0.873,-0.317 -0.333,-0.063 -0.761,-0.121 -1.11,-0.027 -0.348,0.095 -0.595,0.376 -0.898,0.555 -0.262,0.155 -0.592,0.445 -0.793,0.45 -0.202,0.005 -0.19,-0.017 -0.265,-0.132 -0.075,-0.115 -0.046,-0.364 -0.026,-0.529 0.02,-0.165 0.023,-0.26 0.132,-0.45 0.11,-0.188 0.344,-0.414 0.581,-0.607 0.238,-0.194 0.54,-0.39 0.846,-0.529 0.307,-0.138 0.604,-0.265 0.978,-0.29 0.375,-0.027 0.837,0.104 1.216,0.184 0.38,0.081 0.656,0.173 1.058,0.291 z m 10.9430003,-0.079 c -0.366,0.106 -0.7,0.255 -1.084,0.37 -0.383,0.115 -0.932,0.165 -1.216,0.317 -0.283,0.152 -0.43,0.276 -0.502,0.45 -0.071,0.173 -0.077,0.29 0.026,0.449 0.103,0.159 0.348,0.253 0.608,0.317 0.261,0.064 0.621,0.053 0.925,0 0.305,-0.054 0.515,-0.174 0.873,-0.317 0.358,-0.144 0.793,-0.36 1.269,-0.555 0.475,-0.195 1.212,-0.49 1.585,-0.608 0.374,-0.118 0.452,-0.164 0.635,-0.159 0.183,0.005 0.27,0.01 0.423,0.132 0.153,0.123 0.221,0.413 0.37,0.635 0.149,0.221 0.347,0.555 0.529,0.687 0.18,0.131 0.33,0.207 0.449,0.158 0.12,-0.048 0.11,-0.076 0.132,-0.264 0.023,-0.188 -0.106,-0.541 -0.185,-0.82 -0.079,-0.277 -0.162,-0.579 -0.29,-0.845 -0.13,-0.266 -0.246,-0.588 -0.477,-0.74 -0.23,-0.153 -0.474,-0.14 -0.766,-0.132 -0.292,0.007 -0.584,0.104 -0.952,0.211 -0.367,0.107 -0.849,0.332 -1.242,0.45 -0.393,0.117 -0.744,0.158 -1.11,0.264 z"
     id="path2"
     inkscape:connector-curvature="0"
     style="fill:#fafafa;fill-rule:evenodd;stroke:#fafafa;stroke-width:0.01959624" />
</svg>
