<svg xmlns="http://www.w3.org/2000/svg" width="91.168" height="32" viewBox="0 0 24.122 8.467"><path d="M6.43 1.018c.4.118.978.292 1.348.423.369.13.696.175.872.344.175.168.213.316.211.475a.56.56 0 01-.185.397c-.107.105-.226.144-.423.185-.196.04-.47.008-.74 0-.269-.008-.546.013-.872-.053-.326-.066-.736-.255-1.057-.37-.322-.115-.539-.254-.873-.317-.333-.063-.761-.121-1.11-.027-.348.095-.595.376-.898.555-.262.155-.592.445-.793.45-.202.005-.19-.017-.265-.132-.075-.115-.046-.364-.026-.529.02-.165.023-.26.132-.45.11-.188.344-.414.582-.607.237-.194.539-.39.845-.529.307-.138.604-.265.978-.29.375-.027.837.104 1.216.184.38.081.656.173 1.058.291zM17.373.939c-.366.106-.7.255-1.084.37-.383.115-.932.165-1.216.317-.283.152-.43.276-.502.45-.071.173-.076.29.026.449.103.159.348.253.608.317.261.064.621.053.925 0 .305-.054.515-.174.873-.317.358-.144.793-.36 1.268-.555.476-.195 1.213-.49 1.586-.608.374-.118.452-.164.635-.159.183.005.27.01.423.132.153.123.22.413.37.635.149.221.347.555.529.687.18.131.33.207.449.158.12-.048.11-.076.132-.264.023-.188-.106-.541-.185-.82-.079-.277-.162-.579-.29-.845-.13-.266-.246-.588-.477-.74-.23-.153-.474-.14-.766-.132-.292.007-.584.104-.952.211-.367.107-.849.332-1.242.45-.393.117-.744.158-1.11.264z" fill="#e8e8e8" fill-rule="evenodd" stroke="#fafafa" stroke-width=".02"/><path d="M.914 2.858c.048-.183.1-.338.193-.475a.826.826 0 01.339-.308c.167-.088.38-.131.649-.175.267-.044.66-.07.97-.1.312-.03.508-.055.896-.067.389-.012.976 0 1.432.017.456.016.887.033 1.306.075.419.042.823.103 1.205.175.383.071.763.14 1.089.25.326.11.65.246.862.392.212.145.327.245.427.416.1.172.13.345.15.575.02.23-.005.487-.066.792-.061.304-.195.693-.327 1.016a6.51 6.51 0 01-.46.917c-.177.291-.362.628-.595.825-.233.197-.386.251-.728.358-.342.107-.879.17-1.323.2-.444.03-.91-.003-1.33-.025-.421-.021-.716-.03-1.19-.1-.473-.07-1.22-.225-1.64-.35a4.877 4.877 0 01-.888-.342c-.19-.1-.17-.082-.276-.191a1.569 1.569 0 01-.318-.483c-.106-.237-.184-.626-.251-.942a9.589 9.589 0 01-.15-.95 6.874 6.874 0 01-.051-.883 2.71 2.71 0 01.075-.617zM.108 1.387C.07 1.39.053 2.062 0 2.435c.042.134.094.248.151.392.139.293.217 1.05.278 1.356.06.306.115.72.184 1.017.069.297.142.522.217.766.076.245.174.508.276.706.102.198.144.302.352.472.208.169.52.293.88.422s.733.238 1.238.333a19.83 19.83 0 001.798.23c.522.042.852.051 1.333.037.482-.014 1.116-.07 1.54-.167.426-.095.699-.154.982-.361.282-.208.424-.479.643-.822.219-.343.5-.87.67-1.233.169-.363.258-.673.368-.933.11-.261.158-.49.284-.634.127-.142.204-.178.385-.233.182-.055.473-.052.687-.033.214.019.408.052.544.133.137.081.152.138.217.273.066.134.104.29.16.527.056.237.143.533.251.883.108.35.264.893.402 1.217.137.324.238.545.385.733.147.188.238.271.452.4.214.13.51.232.837.317.327.085.77.128 1.122.166.352.038.616.062.988.067.371.005.825-.022 1.239-.05.413-.028.821-.042 1.239-.117.417-.074.966-.21 1.255-.333.29-.122.342-.161.503-.3.16-.139.271-.316.4-.539a4.34 4.34 0 00.336-.794c.1-.3.206-.73.285-1 .079-.27.117-.425.184-.617.068-.191.125-.413.218-.533.093-.12.15-.138.268-.2.117-.062.308-.111.4-.197.09-.086.163-.617.164-.855.002-.237.03-.396-.05-.45-.08-.053-.461-.053-.682-.064a6.482 6.482 0 01-.653-.067c-.218-.033-.34-.078-.653-.133A33.693 33.693 0 0019.7 1.9c-.452-.043-1.051-.106-1.557-.117-.506-.01-.943.007-1.474.05-.53.043-1.225.129-1.707.217-.483.088-.829.21-1.19.283-.36.074-.646.136-.97.167-.325.03-.663.046-.971.017-.31-.03-.482-.087-.871-.184-.39-.096-.971-.289-1.457-.416-.485-.128-.945-.252-1.456-.35a15.491 15.491 0 00-1.608-.234c-.595-.053-1.4-.063-1.959-.066-.558-.003-.91.025-1.39.033-.48.008-.992.032-1.49.046-.497.015-1.125.02-1.492.04zM13.68 4.1c.016-.143.029-.428.075-.584.046-.156.087-.237.167-.35.081-.112.184-.218.319-.308.134-.09.265-.134.485-.208.22-.074.56-.159.837-.208.277-.05.526-.061.82-.092.295-.03.631-.071.947-.092a14.305 14.305 0 011.942 0c.33.024.646.066.98.108.333.043.713.086 1.02.15.308.065.62.137.821.225.2.09.294.141.393.25.1.11.146.197.193.375.047.179.035.41.025.684-.01.273-.047.673-.1.95-.054.276-.117.452-.201.708a11.28 11.28 0 01-.31.825c-.107.251-.167.511-.326.683-.16.172-.357.228-.561.325a4.087 4.087 0 01-.662.25 7.6 7.6 0 01-.912.183 9.639 9.639 0 01-.938.092c-.334.018-.697.022-1.063.008-.366-.013-.76-.046-1.13-.092-.37-.046-.803-.084-1.088-.183-.285-.1-.43-.171-.62-.342-.19-.17-.357-.435-.477-.674-.12-.24-.152-.457-.243-.742-.09-.285-.235-.687-.301-.967-.067-.279-.099-.427-.105-.591a2.201 2.201 0 01.013-.384z" fill="#fafafa"/></svg>