<svg xmlns="http://www.w3.org/2000/svg" width="90.328" height="36.86" viewBox="0 0 23.899 9.753"><g fill="#999" stroke="#999" fill-rule="evenodd" stroke-width=".02"><path d="M6.558.776c.383.168.933.415 1.283.592.35.177.669.263.821.452.153.19.17.341.149.5a.56.56 0 01-.234.369c-.12.09-.244.114-.443.13-.2.015-.469-.053-.734-.095-.266-.043-.544-.058-.859-.165-.315-.106-.697-.347-1.001-.502-.304-.155-.501-.32-.825-.426-.323-.105-.74-.217-1.097-.168-.358.049-.64.296-.963.435-.279.12-.643.365-.844.345-.2-.021-.185-.042-.245-.165-.06-.124.001-.367.042-.528.04-.161.056-.255.188-.429.133-.173.394-.367.655-.528.26-.162.585-.319.906-.416C3.68.079 3.99-.01 4.364.013c.375.022.817.21 1.183.34.365.128.628.255 1.011.423zM17.421 2.097c-.376.058-.727.163-1.122.229-.395.065-.946.044-1.246.159-.3.114-.463.219-.556.381-.093.163-.113.278-.031.45.082.17.312.295.562.392.25.096.61.132.918.118.308-.014.532-.107.906-.203.373-.096.832-.256 1.329-.388.496-.133 1.265-.331 1.65-.4.387-.07.47-.105.65-.076.18.028.266.044.403.185.136.14.166.438.286.676.119.239.273.596.436.75.163.153.3.247.425.214.125-.032.118-.061.165-.245.047-.183-.036-.55-.079-.836-.042-.286-.086-.596-.18-.876s-.168-.614-.377-.795c-.209-.181-.453-.199-.743-.23-.29-.03-.593.03-.971.089-.378.058-.885.22-1.29.286-.405.066-.758.062-1.135.12z"/></g><path d="M.853 1.895c.07-.175.14-.322.251-.446a.826.826 0 01.376-.262c.177-.066.395-.082.666-.091.271-.01.663.015.976.025.312.01.51.011.897.049.386.037.967.124 1.417.2.45.073.876.145 1.286.24.41.096.803.209 1.173.328.37.12.738.237 1.047.388.31.15.614.327.806.498.192.171.293.285.37.468.077.183.085.358.076.59-.01.23-.069.482-.168.776-.1.294-.282.663-.454.967a6.51 6.51 0 01-.574.85c-.212.266-.439.577-.695.742-.256.165-.415.2-.768.262-.353.063-.894.057-1.338.03-.444-.029-.903-.12-1.316-.196-.414-.075-.706-.121-1.167-.251-.46-.13-1.182-.38-1.582-.557a4.877 4.877 0 01-.837-.452c-.175-.124-.157-.104-.249-.226a1.569 1.569 0 01-.254-.52C.717 5.06.69 4.663.664 4.341a9.589 9.589 0 01-.028-.961c.006-.308.023-.635.063-.883a2.71 2.71 0 01.154-.602zM.24.333C.204.333.101.995 0 1.359c.025.138.061.258.1.408.1.308.08 1.07.102 1.38.021.311.022.729.052 1.032.03.304.074.536.118.788s.107.526.183.736c.076.209.104.318.289.512.184.195.477.358.818.532.34.174.697.33 1.186.489.489.16 1.24.349 1.753.457.513.109.839.16 1.318.208.48.047 1.115.072 1.549.032.434-.04.712-.064 1.02-.234.306-.17.48-.42.742-.732.261-.312.607-.799.822-1.138.215-.338.342-.634.485-.878.142-.244.22-.466.363-.592.144-.125.225-.15.412-.182.187-.032.475.009.685.055.21.046.398.104.523.202.125.098.132.156.18.298.048.142.066.301.09.543.026.243.075.547.137.909.062.36.148.919.243 1.258.095.338.166.57.288.776.122.205.202.3.397.455.196.155.476.294.79.42.314.127.747.227 1.091.31.344.082.603.14.971.192.368.053.822.084 1.235.109.414.025.82.063 1.244.043.424-.02.986-.086 1.288-.17.303-.084.36-.116.537-.233.177-.117.31-.28.465-.484.156-.205.3-.46.436-.744.136-.285.298-.699.41-.956.113-.257.17-.406.262-.588.091-.181.176-.394.284-.5.107-.108.167-.118.291-.165.124-.046.32-.071.422-.144.101-.073.24-.591.272-.827.033-.235.081-.389.008-.452-.073-.064-.45-.113-.667-.152a6.482 6.482 0 01-.64-.15c-.211-.06-.328-.12-.63-.215a33.693 33.693 0 00-2.318-.619c-.442-.1-1.029-.24-1.529-.315-.5-.075-.936-.113-1.468-.138a19.381 19.381 0 00-1.721-.004c-.49.025-.848.102-1.215.129-.367.027-.659.052-.985.04a5.285 5.285 0 01-.965-.107c-.302-.069-.467-.148-.84-.293-.374-.145-.926-.41-1.391-.6-.466-.188-.906-.37-1.4-.533-.495-.163-.981-.308-1.565-.437C5.944.96 5.147.847 4.593.773 4.04.7 3.688.682 3.211.628 2.734.575 2.22.533 1.727.484 1.232.434.607.359.24.333zM13.355 4.76c.034-.14.084-.42.15-.569.065-.149.116-.224.21-.325.095-.102.21-.194.355-.266.146-.071.281-.099.509-.144.227-.045.576-.086.857-.1.28-.013.529.007.825.014.296.008.634.01.95.03a14.305 14.305 0 011.926.249c.324.066.632.148.958.233.325.085.697.176.993.28.297.102.598.214.785.327.188.114.274.177.359.299.084.12.12.213.143.396.023.183-.019.411-.063.681-.044.27-.133.662-.221.93-.089.267-.174.433-.29.676a11.28 11.28 0 01-.413.779c-.138.235-.231.485-.411.635-.18.15-.383.181-.598.251-.215.07-.418.122-.688.163a7.6 7.6 0 01-.928.065 9.639 9.639 0 01-.942-.029 11.984 11.984 0 01-1.055-.128c-.362-.06-.748-.142-1.11-.235-.36-.093-.785-.186-1.055-.321-.27-.135-.404-.225-.571-.418-.167-.194-.298-.478-.387-.73-.089-.253-.092-.473-.146-.767-.054-.294-.145-.712-.175-.998-.03-.285-.043-.436-.028-.6.015-.163.028-.238.061-.378z" fill="#fafafa"/></svg>