<?xml version="1.0" encoding="UTF-8" standalone="no"?>
<svg
   xmlns:dc="http://purl.org/dc/elements/1.1/"
   xmlns:cc="http://creativecommons.org/ns#"
   xmlns:rdf="http://www.w3.org/1999/02/22-rdf-syntax-ns#"
   xmlns:svg="http://www.w3.org/2000/svg"
   xmlns="http://www.w3.org/2000/svg"
   xmlns:sodipodi="http://sodipodi.sourceforge.net/DTD/sodipodi-0.dtd"
   xmlns:inkscape="http://www.inkscape.org/namespaces/inkscape"
   id="Capa_1"
   enable-background="new 0 0 512 512"
   height="31.907803"
   viewBox="0 0 31.999998 31.907803"
   width="31.999998"
   version="1.1"
   sodipodi:docname="hamburger.svg"
   inkscape:version="0.92.5 (2060ec1f9f, 2020-04-08)">
  <metadata
     id="metadata19">
    <rdf:RDF>
      <cc:Work
         rdf:about="">
        <dc:format>image/svg+xml</dc:format>
        <dc:type
           rdf:resource="http://purl.org/dc/dcmitype/StillImage" />
        <dc:title></dc:title>
      </cc:Work>
    </rdf:RDF>
  </metadata>
  <defs
     id="defs17" />
  <sodipodi:namedview
     pagecolor="#ffffff"
     bordercolor="#666666"
     borderopacity="1"
     objecttolerance="10"
     gridtolerance="10"
     guidetolerance="10"
     inkscape:pageopacity="0"
     inkscape:pageshadow="2"
     inkscape:window-width="1600"
     inkscape:window-height="831"
     id="namedview15"
     showgrid="false"
     fit-margin-top="0"
     fit-margin-left="0"
     fit-margin-right="0"
     fit-margin-bottom="0"
     inkscape:zoom="1"
     inkscape:cx="262.7832"
     inkscape:cy="22.025391"
     inkscape:window-x="0"
     inkscape:window-y="32"
     inkscape:window-maximized="1"
     inkscape:current-layer="Capa_1" />
  <path
     sodipodi:type="inkscape:offset"
     inkscape:radius="6.7835722"
     inkscape:original="M 255.89062 0.7578125 C 221.93964 1.2488125 190.48911 5.4025152 162.41211 13.103516 C 158.41911 14.198516 156.06906 18.323406 157.16406 22.316406 C 158.25906 26.309406 162.38491 28.661453 166.37891 27.564453 C 193.20491 20.206453 223.35505 16.233906 255.99805 15.753906 C 418.21205 18.143906 473.05186 105.0128 491.29688 156.5918 C 493.55987 162.9878 492.61975 169.82084 488.71875 175.33984 C 484.85075 180.81084 478.78417 183.94922 472.07617 183.94922 L 39.919922 183.94922 C 33.186922 183.94922 27.088406 180.79306 23.191406 175.28906 C 19.340406 169.85206 18.39375 163.14653 20.59375 156.89453 C 33.89475 119.09853 64.440924 67.883156 134.41992 38.535156 C 138.23892 36.933156 140.03559 32.539703 138.43359 28.720703 C 136.83159 24.900703 132.43514 23.105078 128.61914 24.705078 C 94.545142 38.995078 66.034906 59.642312 43.878906 86.070312 C 27.575906 105.51531 14.982219 127.66997 6.4492188 151.91797 C 2.6132188 162.81997 4.253125 174.49608 10.953125 183.95508 C 12.904125 186.71108 15.224594 189.1295 17.808594 191.1875 C 7.0605936 198.5985 2.3684758e-15 210.988 0 225 L 0 231.60547 C 0 251.40447 14.089578 267.97341 32.767578 271.81641 L 32.617188 316.59375 C 14.015186 320.49475 0 337.02163 0 356.76562 L 0 363.37109 C 0 383.15909 14.073328 399.71922 32.736328 403.57422 C 32.233328 411.46522 32.492969 424.27153 37.042969 438.51953 C 49.305969 476.91953 82.516794 495.20811 108.2168 503.78711 C 123.0378 508.73411 138.86477 511.24219 155.25977 511.24219 L 356.74023 511.24219 C 373.13523 511.24219 388.9622 508.73411 403.7832 503.78711 C 429.4842 495.20711 462.69503 476.91953 474.95703 438.51953 C 479.50703 424.27253 479.76667 411.46522 479.26367 403.57422 C 497.92667 399.72022 512 383.15909 512 363.37109 L 512 356.76562 C 512 336.96862 497.90842 320.41231 479.23242 316.57031 L 479.23242 271.81641 C 497.91042 267.97441 512 251.40447 512 231.60547 L 512 225 C 512 210.995 504.94598 198.61122 494.20898 191.19922 C 496.73598 189.15822 499.01484 186.75409 500.96484 183.99609 C 507.61584 174.59009 509.28655 162.4768 505.43555 151.5918 C 496.13555 125.3018 476.80797 87.442953 437.54297 56.376953 C 392.26997 20.558953 331.22642 1.8448125 256.10742 0.7578125 C 256.03542 0.7568125 255.96263 0.7568125 255.89062 0.7578125 z M 255.91016 57.488281 C 251.76916 57.488281 248.41211 60.845328 248.41211 64.986328 L 248.41211 78.666016 C 248.41211 82.807016 251.76916 86.164062 255.91016 86.164062 C 260.05116 86.164062 263.4082 82.807016 263.4082 78.666016 L 263.4082 64.986328 C 263.4082 60.845328 260.05116 57.488281 255.91016 57.488281 z M 193.32617 58.308594 C 190.66604 58.314694 188.09323 59.738999 186.74023 62.242188 L 180.23633 74.277344 C 178.26733 77.920344 179.62458 82.471453 183.26758 84.439453 C 184.40058 85.052453 185.62117 85.34375 186.82617 85.34375 C 189.49117 85.34375 192.07369 83.918203 193.42969 81.408203 L 199.93359 69.373047 C 201.90259 65.730047 200.54534 61.181891 196.90234 59.212891 C 195.76297 58.597578 194.53532 58.305828 193.32617 58.308594 z M 318.08789 58.412109 C 316.87933 58.445899 315.66234 58.774766 314.54297 59.423828 C 310.96097 61.501828 309.74036 66.089875 311.81836 69.671875 L 318.68164 81.505859 C 320.07264 83.902859 322.58978 85.242188 325.17578 85.242188 C 326.45278 85.242188 327.74569 84.914516 328.92969 84.228516 C 332.51169 82.150516 333.7323 77.562469 331.6543 73.980469 L 324.79102 62.146484 C 323.36239 59.683859 320.74672 58.337781 318.08789 58.412109 z M 41.050781 198.94336 L 470.94727 198.94336 C 485.31427 198.94336 497.00391 210.633 497.00391 225 L 497.00391 231.60547 C 497.00391 245.97247 485.31622 257.66211 470.94922 257.66211 L 41.050781 257.66211 C 26.683781 257.66211 14.994141 245.97247 14.994141 231.60547 L 14.994141 225 C 14.994141 210.633 26.683781 198.94336 41.050781 198.94336 z M 47.763672 272.6582 L 464.23633 272.6582 L 464.23633 289.72461 L 313.78711 289.72461 C 309.64611 289.72461 306.28906 293.08166 306.28906 297.22266 C 306.28906 301.36366 309.64611 304.7207 313.78711 304.7207 L 464.23633 304.7207 L 464.23633 336.57617 C 464.23633 341.43317 461.62305 345.56777 457.24805 347.63477 C 452.81605 349.72877 447.89884 349.11047 444.08984 345.98047 C 438.68384 341.53747 430.80558 336.4375 417.76758 336.4375 C 401.66858 336.4375 393.41481 342.97514 386.13281 348.74414 C 379.73881 353.80914 374.68859 357.80859 363.80859 357.80859 C 352.92759 357.80859 347.87642 353.80914 341.48242 348.74414 C 334.20042 342.97614 325.94766 336.4375 309.84766 336.4375 C 293.74766 336.4375 285.13294 343.26114 278.21094 348.74414 C 271.81694 353.80914 266.76767 357.80859 255.88867 357.80859 C 245.00867 357.80859 239.95745 353.80914 233.56445 348.74414 C 226.64345 343.26114 218.02869 336.4375 201.92969 336.4375 C 185.82969 336.4375 177.57792 342.97514 170.29492 348.74414 C 165.73692 352.35514 161.84283 355.41105 156.04883 356.87305 L 156.04883 314.6543 C 156.04883 309.1763 160.50442 304.7207 165.98242 304.7207 L 278.62891 304.7207 C 282.76991 304.7207 286.12695 301.36366 286.12695 297.22266 C 286.12695 293.08166 282.76991 289.72461 278.62891 289.72461 L 165.98242 289.72461 C 152.23542 289.72461 141.05273 300.9073 141.05273 314.6543 L 141.05273 406.99414 C 141.05273 415.14914 134.41867 421.78516 126.26367 421.78516 C 118.10867 421.78516 111.47461 415.14914 111.47461 406.99414 L 111.47461 314.6543 C 111.47461 300.9073 100.29092 289.72461 86.544922 289.72461 L 47.763672 289.72461 L 47.763672 272.6582 z M 47.546875 304.7207 L 86.542969 304.7207 C 92.020969 304.7207 96.478516 309.1763 96.478516 314.6543 L 96.478516 336.5 C 95.675516 336.463 94.858766 336.4375 94.009766 336.4375 C 80.975766 336.4375 73.099313 341.53361 67.695312 345.97461 C 63.885312 349.10461 58.967203 349.72391 54.533203 347.62891 C 50.158203 345.56191 47.546875 341.42827 47.546875 336.57227 L 47.546875 304.7207 z M 479.23242 332.06836 C 489.55042 335.53736 497.00391 345.29464 497.00391 356.76562 L 497.00391 363.37109 C 497.00391 377.73809 485.31427 389.42773 470.94727 389.42773 L 156.04883 389.42773 L 156.04883 372.17969 C 167.04383 370.42569 173.65452 365.21005 179.60352 360.49805 C 185.99752 355.43305 191.04969 351.43359 201.92969 351.43359 C 212.80969 351.43359 217.85895 355.43305 224.25195 360.49805 C 231.17395 365.98105 239.78772 372.80664 255.88672 372.80664 C 271.98572 372.80664 280.23948 366.26705 287.52148 360.49805 C 293.91548 355.43305 298.9657 351.43359 309.8457 351.43359 C 320.7267 351.43359 325.77787 355.43305 332.17188 360.49805 C 339.45387 366.26605 347.70664 372.80664 363.80664 372.80664 C 379.90664 372.80664 388.16136 366.26705 395.44336 360.49805 C 401.83736 355.43305 406.88758 351.43359 417.76758 351.43359 C 425.97458 351.43359 430.69141 354.38041 434.56641 357.56641 C 442.84441 364.36941 453.9903 365.76036 463.6543 361.19336 C 473.2623 356.65336 479.23242 347.22017 479.23242 336.57617 L 479.23242 332.06836 z M 32.566406 332.1543 L 32.550781 336.57227 C 32.550781 347.21527 38.519953 356.64845 48.126953 361.18945 C 57.789953 365.75645 68.937797 364.3665 77.216797 357.5625 C 81.089797 354.3795 85.805766 351.43359 94.009766 351.43359 C 94.872766 351.43359 95.685516 351.46858 96.478516 351.51758 L 96.478516 389.42773 L 41.050781 389.42773 C 26.683781 389.42773 14.996094 377.73809 14.996094 363.37109 L 14.996094 356.76562 C 14.996094 345.37162 22.357406 335.6843 32.566406 332.1543 z M 47.65625 404.42188 L 96.478516 404.42188 L 96.478516 406.99414 C 96.478516 423.41814 109.83967 436.7793 126.26367 436.7793 C 142.68767 436.7793 156.04883 423.41914 156.04883 406.99414 L 156.04883 404.42188 L 464.30469 404.42188 C 464.72769 410.82686 464.57683 421.73403 460.67383 433.95703 C 452.36583 459.97403 431.62716 478.6835 399.03516 489.5625 C 385.74816 493.9985 371.51823 496.24609 356.74023 496.24609 L 155.25977 496.24609 C 140.48177 496.24609 126.25184 493.9985 112.96484 489.5625 C 49.119848 468.2505 46.44525 421.17187 47.65625 404.42188 z "
     style="fill:#fafafa;fill-opacity:1;stroke:none;stroke-width:10;stroke-miterlimit:4;stroke-dasharray:none;stroke-opacity:1"
     id="path2"
     d="M 255.79297,-6.0253906 C 222.99398,0.29858559 139.92642,61.976256 150.62109,24.111328 c 25.40761,25.209241 139.21875,8.27684 105.3711,-1.570312 159.73872,2.387542 211.29533,86.515084 228.91015,136.312504 1.5592,4.40683 0.95156,8.78692 -1.72265,12.57031 -2.6438,3.73945 -6.51134,5.74219 -11.10352,5.74219 H 39.919922 c -4.613089,0 -8.516368,-2.01874 -11.191406,-5.79688 a 6.7842506,6.7842506 0 0 0 -0.002,0 C 26.093046,167.65103 25.498569,163.39108 26.992188,159.14648 39.850601,122.60813 69.010407,73.322714 137.04297,44.791016 a 6.7842506,6.7842506 0 0 0 0.002,0 c 7.1983,-3.019553 10.66298,-11.494986 7.64453,-18.69336 v -0.002 C 141.66823,18.894032 133.19407,15.431199 125.99609,18.449219 91.017515,33.118583 61.558808,54.422343 38.679688,81.712891 21.851876,101.78384 8.8480605,124.66702 0.05078125,149.66602 c -4.54026205,12.90352 -2.55297215,27.02932 5.36718755,38.21093 0.7289568,1.02959 1.5697399,1.94309 2.3789062,2.89063 C -1.1529067,199.46908 -6.7832031,211.59155 -6.7832031,225 v 6.60547 c 0,21.03759 13.7579213,38.87457 32.7500001,45.23437 l -0.115235,34.73828 c -18.9305857,6.39308 -32.6347651,24.19394 -32.6347651,45.1875 v 6.60547 c 0,20.98446 13.6877617,38.78562 32.6054691,45.1875 -0.08851,8.37951 0.780004,19.56917 4.757812,32.02539 13.152856,41.18647 48.706629,60.69666 75.488282,69.63672 a 6.7842506,6.7842506 0 0 0 0,0.002 c 15.54359,5.18819 32.10458,7.80273 49.19141,7.80273 h 201.48046 c 17.08683,0 33.64782,-2.61454 49.19141,-7.80273 a 6.7842506,6.7842506 0 0 0 0,-0.002 c 26.7823,-8.94098 62.33645,-28.4501 75.48828,-69.63672 3.97789,-12.45558 4.84634,-23.64566 4.75781,-32.02539 18.91779,-6.4014 32.60547,-24.20323 32.60547,-45.1875 v -6.60547 c 0,-21.04236 -13.76997,-38.87259 -32.76758,-45.2246 V 276.8457 c 19.00135,-6.35407 32.76758,-24.19631 32.76758,-45.24023 V 225 c 0,-13.41809 -5.63789,-25.54762 -14.59765,-34.25 0.78664,-0.93092 1.6044,-1.8281 2.31836,-2.83789 7.92691,-11.21042 9.91072,-25.62361 5.32617,-38.58203 C 502.22746,122.18462 482.27057,83.114488 441.75195,51.056641 395.05372,14.111058 332.39721,-4.922862 256.20508,-6.0253906 a 6.7842506,6.7842506 0 0 0 -0.004,0 c -0.13548,-0.00188 -0.26882,-0.00188 -0.40429,0 a 6.7842506,6.7842506 0 0 0 -0.004,0 z m 0.11719,56.7304686 c -35.62405,5.011999 28.34722,-14.300586 14.28125,27.960938 -14.509,-22.676643 47.54897,-20.641211 -14.28125,-27.960938 z m -62.59961,0.820313 c -5.07149,0.01163 -9.98546,2.771369 -12.53711,7.492187 -34.2009,19.255612 -3.65034,46.002362 18.625,25.615234 8.70495,-20.954064 19.40696,-28.394994 -6.08789,-33.107421 z m 124.58789,0.105468 c -27.54597,6.949676 4.32313,62.663881 14.43554,38.464844 C 345.4382,72.297559 322.8503,34.777776 317.89844,51.630859 Z M 41.050781,205.72656 H 470.94727 c 10.68738,0 19.27343,8.58605 19.27343,19.27344 v 6.60547 c 0,10.688 -8.5841,19.27344 -19.27148,19.27344 H 41.050781 c -10.687386,0 -19.273437,-8.58606 -19.273437,-19.27344 V 225 c 0,-10.68739 8.586051,-19.27344 19.273437,-19.27344 z m 13.496094,73.71485 H 457.45312 v 3.5 H 313.78711 c -7.80723,0 -14.28125,6.47402 -14.28125,14.28125 0,7.80723 6.47403,14.28125 14.28125,14.28125 h 143.66601 v 25.07226 c 0,2.42376 -0.94427,3.90564 -3.10351,4.92578 -2.21339,1.04577 -4.01809,0.82838 -5.95313,-0.76172 -5.93634,-4.87887 -15.82192,-11.08593 -30.6289,-11.08593 -17.93549,0 -28.56529,8.00414 -35.84766,13.77343 v -0.002 c -6.39363,5.06471 -8.89374,7.59961 -18.11133,7.59961 -9.21874,0 -11.7199,-2.5351 -18.11328,-7.59961 -7.28149,-5.76759 -17.91099,-13.77148 -35.84765,-13.77148 -18.01672,0 -28.92756,8.28844 -35.84961,13.77148 -6.39389,5.06491 -8.89294,7.59961 -18.10938,7.59961 -9.21759,0 -11.71918,-2.53333 -18.11133,-7.59766 -6.92137,-5.4833 -17.83182,-13.77343 -35.84765,-13.77343 -17.93638,0 -28.56504,8.00278 -35.84766,13.77148 a 6.7842506,6.7842506 0 0 0 0,0.002 c -1.24476,0.98615 -2.1966,1.61679 -3.25,2.39649 V 314.6543 c 0,-1.79968 1.35073,-3.15039 3.15039,-3.15039 h 112.64649 c 7.80722,0 14.28125,-6.47403 14.28125,-14.28125 0,-7.80722 -6.47402,-14.28125 -14.28125,-14.28125 H 165.98242 c -17.42579,0 -31.71289,14.28709 -31.71289,31.71289 v 92.33984 c 0,4.47606 -3.53088,8.00781 -8.00586,8.00781 -4.47497,0 -8.00586,-3.53175 -8.00586,-8.00781 V 314.6543 c 0,-17.42613 -14.28783,-31.71289 -31.712888,-31.71289 H 54.546875 Z m -0.216797,32.0625 c 15.53551,0.97227 27.488279,43.96506 35.365234,18.37304 -12.415501,1.06011 -20.972753,6.47404 -26.30664,10.85743 v -0.002 c -1.936658,1.59101 -3.741729,1.81037 -5.957031,0.76367 -2.159267,-1.02016 -3.101563,-2.49975 -3.101563,-4.92382 z m 430.785152,32.5039 c 29.41591,19.39447 -45.70011,52.09385 -14.16796,38.63672 H 162.83203 v -5.23437 c 9.36255,-2.73706 16.0077,-7.65344 20.98242,-11.59375 a 6.7842506,6.7842506 0 0 0 0.002,0 c 6.39311,-5.0643 8.89569,-7.59961 18.11328,-7.59961 9.21758,0 11.71669,2.5329 18.10937,7.59765 a 6.7842506,6.7842506 0 0 0 0,0.002 c 6.92121,5.48237 17.83128,13.77343 35.84766,13.77343 17.93604,0 28.56587,-8.00656 35.84766,-13.77539 v 0.002 c 6.39363,-5.06472 8.89374,-7.59961 18.11132,-7.59961 9.21874,0 11.71989,2.5351 18.11328,7.59961 7.2809,5.76713 17.91045,13.77343 35.84766,13.77343 17.93693,0 28.5676,-8.00638 35.84961,-13.77539 v 0.002 c 6.39364,-5.06472 8.89374,-7.59961 18.11133,-7.59961 6.58318,0 9.11617,1.81571 12.49023,4.58984 a 6.7842506,6.7842506 0 0 0 0.002,0 c 10.23518,8.41145 24.32617,10.17478 36.29296,4.51953 9.61,-4.54094 16.30527,-13.21984 18.5625,-23.31836 z m -458.404292,0.19336 c 32.179553,32.46393 31.160119,45.2198 62.984374,14.36133 v 24.08203 H 41.050781 c -10.687386,0 -19.271484,-8.58544 -19.271484,-19.27344 v -6.60547 c 0,-4.88239 1.950821,-9.18482 4.931641,-12.56445 z m 27.582031,67.00391 h 35.830078 c 2.130011,18.11691 17.478493,32.35742 36.140623,32.35742 18.66188,0 34.01058,-14.23999 36.14063,-32.35742 h 295.21289 c -0.13267,5.65744 -0.90649,12.86096 -3.40625,20.68945 -7.59991,23.79756 -26.12886,40.81961 -57.32422,51.23242 a 6.7842506,6.7842506 0 0 0 0,0.002 c -12.5599,4.19325 -26.0563,6.33398 -40.14649,6.33398 H 155.25977 c -14.09019,0 -27.58659,-2.14073 -40.14649,-6.33398 -30.526457,-10.18999 -45.443839,-25.93051 -53.166014,-40.94922 -5.96152,-11.59445 -7.50087,-22.90115 -7.654297,-30.97461 z"
     transform="matrix(0.06088669,0,0,0.06088669,0.41300678,0.36695201)" />
</svg>
