<svg xmlns="http://www.w3.org/2000/svg" height="31.908" width="32"><path d="M15.987 0C13.99.385 8.933 4.14 9.584 1.835 11.13 3.37 18.06 2.339 16 1.739c9.725.146 12.865 5.268 13.937 8.3a.812.812 0 01-.105.765.8.8 0 01-.676.35H2.844a.808.808 0 01-.682-.353.791.791 0 01-.106-.744C2.84 7.832 4.615 4.83 8.757 3.094c.439-.184.65-.7.466-1.138a.876.876 0 00-1.139-.466c-2.13.893-3.923 2.19-5.316 3.852A13.276 13.276 0 00.416 9.48a2.546 2.546 0 00.327 2.326c.044.063.095.118.145.176A2.902 2.902 0 000 14.066v.403c0 1.28.838 2.367 1.994 2.754l-.007 2.115A2.911 2.911 0 000 22.089v.402c0 1.278.833 2.362 1.985 2.752-.005.51.048 1.191.29 1.95.8 2.507 2.966 3.695 4.596 4.24a9.443 9.443 0 002.995.475h12.268c1.04 0 2.048-.16 2.995-.475 1.63-.545 3.795-1.733 4.596-4.24.242-.759.295-1.44.29-1.95A2.912 2.912 0 0032 22.49v-.402a2.911 2.911 0 00-1.995-2.753v-2.113A2.912 2.912 0 0032 14.47v-.403c0-.817-.343-1.555-.889-2.085.048-.057.098-.111.141-.173.483-.682.604-1.56.325-2.349a13.265 13.265 0 00-4.267-5.983C24.467 1.226 20.652.067 16.012 0h-.024zm.008 3.454c-2.17.305 1.725-.87.87 1.703-.884-1.381 2.894-1.257-.87-1.703zm-3.812.05a.872.872 0 00-.763.456c-2.083 1.173-.223 2.801 1.134 1.56.53-1.276 1.181-1.729-.371-2.016zm7.586.007c-1.677.423.263 3.815.879 2.342.798-1.084-.578-3.369-.88-2.342zM2.912 12.893h26.175c.651 0 1.174.523 1.174 1.173v.403a1.17 1.17 0 01-1.173 1.173H2.912A1.17 1.17 0 011.74 14.47v-.403c0-.65.523-1.173 1.173-1.173zm.822 4.488h24.532v.213h-8.748a.876.876 0 00-.87.87c0 .475.395.87.87.87h8.748v1.526c0 .148-.058.238-.19.3-.134.064-.244.05-.362-.047a2.855 2.855 0 00-1.865-.674c-1.092 0-1.739.487-2.182.838-.39.308-.542.463-1.103.463-.561 0-.713-.155-1.103-.463-.443-.351-1.09-.838-2.182-.838-1.097 0-1.762.504-2.183.838-.39.308-.542.463-1.103.463-.561 0-.713-.155-1.103-.463-.42-.334-1.085-.838-2.182-.838-1.092 0-1.74.487-2.183.838-.076.06-.134.099-.198.146v-1.898c0-.11.083-.192.192-.192h6.859c.475 0 .87-.394.87-.87a.876.876 0 00-.87-.869h-6.859c-1.06 0-1.93.87-1.93 1.931v5.622a.483.483 0 01-.488.488.483.483 0 01-.488-.488v-5.622c0-1.06-.87-1.93-1.93-1.93H3.733zm-.013 1.952c.946.06 1.674 2.677 2.153 1.12a2.86 2.86 0 00-1.601.66c-.118.097-.228.11-.363.047-.132-.063-.189-.153-.189-.3zm26.23 1.98c1.79 1.18-2.783 3.171-.864 2.352h-18.76v-.319c.57-.166.975-.466 1.278-.706.39-.308.542-.462 1.103-.462.561 0 .713.154 1.102.462.422.334 1.086.839 2.183.839 1.092 0 1.74-.488 2.183-.839.389-.308.541-.462 1.102-.462.562 0 .714.154 1.103.462.444.351 1.09.839 2.183.839 1.092 0 1.74-.488 2.183-.839.389-.308.541-.462 1.102-.462.401 0 .556.11.761.28.623.511 1.481.619 2.21.274a2.062 2.062 0 001.13-1.42zm-27.912.011c1.96 1.977 1.898 2.754 3.835.875v1.466H2.912A1.17 1.17 0 011.74 22.49v-.402c0-.297.119-.559.3-.765zm1.68 4.08H5.9a2.227 2.227 0 002.2 1.97c1.137 0 2.072-.867 2.201-1.97h17.975a4.486 4.486 0 01-.208 1.26c-.462 1.449-1.59 2.485-3.49 3.119a7.701 7.701 0 01-2.444.386H9.866c-.858 0-1.68-.13-2.444-.386-1.859-.62-2.767-1.579-3.237-2.493a4.311 4.311 0 01-.466-1.886z" fill="#fafafa"/></svg>